<?xml version="1.0" encoding="utf-8" ?><svg xmlns="http://www.w3.org/2000/svg" xmlns:xlink="http://www.w3.org/1999/xlink" width="614" height="335" viewBox="0 0 1024 559"><path fill="#88A7B9" transform="matrix(0.363636 0 0 0.363932 0 3.05176e-05)" d="M825.203 14.4619C826.257 14.1872 827.948 13.9411 829.033 13.949C858.517 14.1654 883.291 21.4726 906.886 39.7516C915.712 46.5888 920.242 51.8849 927.96 58.8059C936.706 52.1597 951.569 46.9218 962.223 44.8811C992.671 38.9285 1024.23 45.5719 1049.7 63.294C1083.47 86.4333 1094.73 116.857 1098.23 155.491C1098.98 163.769 1107.04 163.336 1112.02 167.639C1124.94 178.818 1133.76 198.012 1136.96 214.611C1141.04 240.778 1130.92 257.619 1115.36 276.736C1114.23 278.121 1114.8 297.096 1114.62 302.009C1114.21 315.254 1111.38 328.312 1106.28 340.541C1097.12 362.916 1078.61 385.268 1057.46 397.948C1052.06 401.189 1032.98 406.197 1031.16 408.754C1032.04 410.051 1032.1 410.073 1033.42 410.556C1069.68 424.067 1086.42 452.759 1096.22 488.193C1107.43 497.999 1119.39 505.927 1127.38 518.858C1164.37 578.722 1114.23 659.85 1044.18 647.388C1014.75 642.152 1025.09 645.605 998.736 650.703C965.44 657.144 926.284 626.454 919.645 593.831C918.426 588.545 918.963 581.343 917.823 575.814C917.491 574.608 898.042 562.945 896.344 559.202C885.561 548.146 882.862 545.079 875.606 531.674C870.895 520.029 869.066 510.123 866.473 497.975C866.496 498.085 860.486 491.72 860.231 491.528C851.019 484.551 852.097 477.153 847.52 467.49C841.758 467.391 835.696 467.459 829.989 466.763C825.956 466.272 825.252 465.047 822.524 466.661C829.026 488.04 838.741 514.81 839.503 537.225C844.497 684.17 643.351 710.589 612.468 565.755C606.708 538.743 622.133 538.609 599.072 515.134C580.133 489.517 587.598 459.68 600.655 434.198C601.183 433.166 592.147 417.298 589.882 413.526C566.418 374.454 565.591 308.652 588.976 269.379C614.436 226.622 616.638 257.988 599.2 208.833C597.004 202.6 595.345 196.19 594.242 189.674C591.39 173.287 593.049 153.634 597.185 137.736C613.946 73.3116 677.154 36.9354 741.204 54.2956C764.082 30.3619 792.156 16.781 825.203 14.4619ZM864.126 304.21C870.875 306.912 877.659 309.527 884.476 312.055C888.88 307.845 891.618 300.287 895.686 296.504C899.537 292.922 908.744 289.302 913.69 287.198C925.279 282.267 923.757 283.047 924.165 270.587C924.28 267.081 924.295 262.587 924.663 259.028C925.528 253.523 930.575 243.772 930.676 238.704C921.18 234.21 911.811 229.768 903.244 222.471C898.038 218.036 890.325 205.493 885.325 199.878C884.317 199.823 883.31 199.768 882.302 199.713C864.846 210.885 851.347 216.81 829.522 215.731C826.127 215.563 817.555 213.807 815.049 214.763C815.909 218.071 815.923 217.259 817.398 220.102C827.953 240.437 828.111 268.165 822.761 290.08C821.883 293.676 818.031 303.067 818.51 305.02C831.644 302.99 840.726 299.85 853.972 302.578C856.171 303.031 862.125 304.093 864.126 304.21ZM1051.24 161.915L1053.13 163.245C1063.63 161.348 1059.57 138.06 1057.72 130.683C1054.33 117.209 1037.68 97.1612 1026.34 89.7032C1015.44 82.5327 990.228 76.9445 977.695 79.2584C972.13 80.0995 966.816 81.1021 962.729 85.3317L962.279 87.7324C964.197 90.4802 965.532 91.6652 969.275 92.0688C995.596 94.9073 1018.43 103.563 1034.58 125.669C1043.48 137.855 1045.28 148.791 1051.24 161.915Z"/><path fill="#88A7B9" transform="matrix(0.363636 0 0 0.363932 0 3.05176e-05)" d="M518.348 634.504C569.955 627.581 609.306 649.985 645.457 683.624C646.123 686.786 646.359 687.504 647.599 690.498C653.601 695.094 671.754 691.678 680.689 692.139C745.993 695.512 793.703 750.033 791.591 815.238C787.733 934.283 637.474 975.313 572.196 877.335C551.227 845.641 569.975 853.773 532.934 868.368C510.957 877.05 486.849 878.796 463.851 873.371L462.483 873.03C460.779 874.084 459.042 892.8 458.076 897.01C450.982 927.931 434.962 943.475 416.323 966.954C418.009 972.652 423.93 976.689 425.754 980.728C431.063 992.481 438.05 1006.99 441.075 1019.61C443.806 1034.14 443.114 1048.94 443.954 1063.62C444.005 1064.49 452.185 1066.83 453.48 1067.17C456.818 1068.05 460.263 1069.37 463.579 1070.23C486.465 1076.16 504.612 1090.96 520.926 1107.43C538.105 1095.38 552.725 1094.1 572.549 1091.79C573.084 1091.72 579.83 1090.46 579.859 1090.4C612.714 1029.02 693.088 1009.75 749.79 1051.21C784.862 1076.85 791.229 1103.56 797.356 1143.92C794.693 1172.23 792.698 1190.93 775.019 1216.27C757.76 1241.01 733.498 1257.23 703.938 1264.32C700.277 1265.2 680.991 1265.87 679.334 1266.95C670.916 1272.42 659.154 1288.5 649.94 1294.98C638.088 1303.31 622.591 1310.69 609.149 1314.46C581.714 1322.16 554.926 1321.23 529.114 1309.02C524.885 1307.02 520.303 1305.97 516.177 1303.48C514.348 1302.56 499.805 1291.89 498.704 1292.3C484.358 1297.68 471.944 1303.97 456.379 1306.21C409.234 1312.99 367.954 1291.14 341.1 1253.01C338.078 1248.72 333.243 1236.94 329.717 1232.31C321.49 1229.75 307.504 1228.75 297.351 1225.49C287.78 1222.39 278.777 1217.75 270.694 1211.76C218.15 1173.01 231.811 1110.17 229.19 1107.28C162.39 1037.41 162.581 921.177 234.645 854.806C245.005 845.265 252.299 847.338 250.637 831.297C249.883 824.017 250.642 811.315 251.884 803.958C255.677 780.693 265.035 758.689 279.16 739.818C306.827 703.052 351.216 682.779 397.12 685.945C403.383 686.346 418.238 691.136 419.54 689.459C445.041 656.601 477.373 640.379 518.348 634.504ZM307.596 823.274C322.392 775.835 347.059 752.095 395.942 742.302C398.993 741.691 401.102 738.054 399.424 734.56C393.598 730.346 377.029 728.653 370.517 730.392C324.473 735.43 283.174 781.032 294.234 829.489C295.052 833.076 295.467 835.316 297.577 838.446L299.969 839.953C305.892 838.31 306.864 828.721 307.596 823.274Z"/><path fill="#88A7B9" transform="matrix(0.363636 0 0 0.363932 0 3.05176e-05)" d="M917.532 669.566C931.969 667.253 951.409 672.568 964.543 678.811C992.998 691.328 1014.13 720.747 1018.62 751.531C1021.24 769.52 1021.97 795.439 1021.56 814.032C1021.4 821.158 1014.68 839.019 1016.84 845.106C1098.72 787.896 1226.02 813.335 1241.13 924.16C1241.48 926.752 1241.43 935.491 1243.02 936.851C1285 972.797 1297.81 1024.87 1257.04 1077.54C1257.5 1077.95 1257.95 1078.37 1258.39 1078.8C1271.07 1091.16 1277.92 1105.58 1278.16 1122.79C1278.47 1144.81 1271.2 1159.54 1259.07 1176.71C1258.62 1177.35 1258.7 1192.25 1258.54 1195.04C1257.34 1215.25 1248.27 1235.29 1234.6 1250.14C1196.48 1289.55 1128.85 1288.43 1090.55 1249.85C1056.21 1215.26 1054.86 1153.84 1090.05 1119.45C1080.44 1105.14 1079.73 1093.81 1087.33 1078.14C1088.22 1076.31 1088.3 1076.47 1088.14 1074.52C1088.46 1071.63 1083.66 1067.6 1081.57 1064.84C1078.34 1060.57 1075.62 1055.95 1073.45 1051.07C1067.9 1038.77 1066.04 1024.82 1065.87 1011.37C1065.81 1006.57 1067.78 1003.43 1067.13 998.858C1059.47 985.841 1032.76 992.077 1022.14 998.369C1016.41 1000.42 1017.41 1006.43 1019.05 1012.09C1027.61 1041.6 1020.69 1079.47 1005.06 1105.52C1003.57 1108.01 1016.11 1121.03 1016.83 1125.68C1018.46 1136.25 1024.54 1146.57 1025.59 1157.46C1028.49 1184.84 1022.13 1215.61 1004.86 1237.31C986.498 1260.58 959.539 1275.46 930.07 1278.61C902.058 1281.47 874.084 1272.85 852.535 1254.73C821.789 1229.28 808.307 1191.14 816.116 1152.21C818.248 1141.58 821.665 1134.54 824.433 1124.95C825.398 1121.6 824.368 1105.26 825.268 1100.28C826.004 1096.22 831.152 1082.93 830.572 1080.6C829.39 1075.86 820.681 1066.68 817.952 1060.87C809.859 1043.65 804.281 1027.53 802.564 1008.53C799.416 973.156 810.499 937.988 833.36 910.813C822.196 899.914 815.39 893.277 809.279 878.109C802.08 860.24 804.291 841.611 811.783 824.215C814.966 816.823 819.259 812.864 824.185 806.56C824.483 806.178 826.474 803.804 826.475 803.787C826.718 795.282 822.424 782.327 822.262 774.196C821.698 745.857 829.077 720.004 848.751 699.168C867.441 679.374 890.961 670.7 917.532 669.566ZM1194.08 934.774L1195.62 936.591L1197.65 936.589C1200.49 933.736 1201.03 932.521 1203 928.964C1203.32 907.167 1199.07 889.431 1183.48 872.898C1169.34 857.901 1144.79 847.204 1123.96 851.41C1118.27 852.201 1113.97 852.123 1110.34 856.594L1110.06 859.422C1112.28 861.496 1123.2 864.388 1126.5 865.165C1156.43 872.19 1173.79 884.107 1186.47 912.808C1189.6 919.902 1191.47 928.739 1194.08 934.774Z"/><path fill="#88A7B9" transform="matrix(0.363636 0 0 0.363932 0 3.05176e-05)" d="M1352.47 173.487C1356.62 172.159 1370.35 173.592 1374.85 174.437C1407.18 180.512 1431.22 194.432 1450.27 221.346C1453.38 220.474 1461.62 208.443 1465.09 204.865C1468.3 201.613 1471.8 198.652 1475.53 196.018C1492.82 183.701 1515.05 178.241 1536.01 182.05C1557.44 186.125 1576.36 198.585 1588.57 216.664C1598.58 231.478 1603.08 252.181 1601.91 270.18C1601.87 272.941 1598.57 285.55 1599.19 287.277C1614.79 330.468 1614.76 373.721 1592.73 414.762C1587.62 424.284 1591.14 428.295 1595.48 437.455C1605.47 458.284 1610.52 482.394 1607.17 505.448C1604.67 522.693 1604.34 523.426 1610.14 539.602C1638.01 617.321 1552.16 684.444 1482.07 642.2C1466.84 633.015 1460.12 623.692 1450.57 609.076L1449.78 607.852L1449.07 608.057C1444.7 609.383 1422.97 634.253 1410.64 640.699C1360.43 666.949 1297.17 663.408 1255.39 623.198C1243.64 611.898 1232.15 616.659 1217.09 610.309C1177.82 593.746 1152.55 555.053 1156.38 512.062C1158.95 487.402 1150.78 490.316 1141.56 469.026C1123.99 428.42 1132.52 375.751 1162.88 343.549C1162.02 337.213 1159.37 316.254 1159.8 311.09C1165.08 247.07 1210.57 209.57 1272.37 211.127C1282.86 201.085 1284.9 195.923 1299.33 188.723C1317.85 179.482 1331.82 175.003 1352.47 173.487ZM1365 486.978C1375.4 479.72 1393.6 477.55 1405.99 476.487C1405.87 454.915 1411.41 437.538 1423.85 421.207C1425.19 419.447 1419.2 407.14 1418.26 404.841C1409.28 389.42 1414.59 372.169 1411.08 358.241C1407.89 355.632 1394.19 354.799 1388.81 352.347C1380.57 348.59 1374.13 344.242 1366.9 338.867C1356.76 346.304 1347.71 355.728 1335.51 358.248C1332.78 358.811 1325.17 360.494 1323.33 361.977C1322.89 367.188 1323.17 373.726 1322.64 378.09C1320.87 392.435 1313.57 405.772 1306.75 418.243C1323.12 434.813 1324.28 447.567 1327.63 468.636C1339.64 474.82 1349.16 479.786 1358.48 489.752C1359.05 490.353 1364.18 487.52 1365 486.978ZM1567.22 274.068C1570.77 271.768 1572.15 270.165 1572.78 265.572C1576.25 240.257 1555.93 213.003 1530.56 209.307C1526.06 208.652 1519.94 208.927 1515.42 209C1511.48 210.103 1510.79 209.647 1508.13 212.321C1510.07 219.516 1522.56 220.422 1528.62 222.54C1543.06 227.584 1555.09 238.145 1559.59 253.043C1561.35 258.449 1564.45 270.017 1567.22 274.068Z"/><path fill="#88A7B9" transform="matrix(0.363636 0 0 0.363932 0 3.05176e-05)" d="M2299.8 668.612C2310.68 667.179 2333.12 671.749 2343.34 675.477C2367.61 684.378 2387.41 702.448 2398.49 725.801C2413.94 758.827 2412.47 782.687 2399.73 815.782C2396.4 824.445 2389.61 828.301 2386.53 836.212C2388.37 840.151 2389.81 844.365 2391.65 848.28C2402.59 871.525 2404.11 892.685 2399.48 917.554C2398.25 924.162 2393.4 942.479 2393.68 945.664C2396.65 945.843 2402.48 941.647 2405.54 940.304C2411.26 937.798 2412.75 923.557 2414.2 917.222C2417.2 900.881 2432.28 886.908 2446.78 880.149C2462.68 872.732 2457.8 869.084 2464.43 856.805C2468.21 849.81 2483.14 837.092 2489.62 832.039C2495.3 829.531 2500.18 826.376 2505.7 823.6C2525.08 813.856 2553.21 816.228 2571.11 823.387C2631.17 847.417 2647.76 924.787 2601.81 970.31C2596.8 975.276 2584.48 982.51 2579.61 988.09C2571.72 1013.7 2557.85 1025.58 2530.61 1037.24C2536.97 1039.84 2542.87 1042.63 2547.98 1045.87C2569.21 1059.29 2578.78 1081.21 2584.99 1104.35C2585.22 1105.23 2595.87 1112.24 2598.18 1113.77C2617.71 1126.67 2629.59 1145.37 2634.18 1168.25C2638.5 1189.25 2636.06 1216.27 2624 1234.58C2610.25 1255.47 2589.25 1271.72 2564.5 1276.85C2513.48 1287.02 2477.69 1264.7 2455.63 1219.05C2454.95 1215.55 2453.92 1202.17 2451.42 1200.05C2434.75 1185.96 2417.3 1173.44 2407.29 1153.18C2403.93 1146.36 2403.68 1140.31 2400.93 1133.31C2398.91 1134.18 2398.6 1134.42 2396.78 1135.67C2396.35 1140.69 2403.65 1159.63 2404.51 1171.17C2406.52 1198.24 2398.24 1222.6 2380.74 1243.24C2363.32 1263.95 2338.3 1276.77 2311.32 1278.83C2277.2 1281.54 2251.5 1268.82 2227.27 1246.2C2222.91 1242.14 2217.75 1232.22 2214.6 1226.61C2200.71 1202.32 2197.99 1173.22 2207.15 1146.78C2208.96 1141.43 2215.68 1125.26 2214.42 1121.2C2212.72 1115.72 2202.63 1103.54 2199.66 1097.96C2190.87 1081.45 2183.86 1057.29 2182.8 1039.11C2181.21 1011.83 2188.9 982.402 2202.93 959.075C2206.93 952.429 2215.6 942.692 2220.93 936.624C2210.92 925.991 2201.9 916.698 2196.63 904.348C2183.88 874.423 2189.89 838.664 2211.55 814.901C2214.37 811.81 2209.26 798.182 2208.06 793.604C2195.31 745.318 2224.81 689.946 2273.02 675.086C2281.63 672.412 2290.41 671.324 2298.61 668.965L2299.8 668.612ZM2519.17 860.531C2530.7 855.645 2532.13 855.847 2544.1 855.027C2552.77 854.433 2567.66 860.42 2571.18 858.996C2575.57 844.39 2543.3 838.837 2532.2 840.403C2517.09 841.832 2491.98 859.387 2491.96 874.412C2493.4 876.872 2494.78 877.781 2497.8 877.278C2499.31 872.987 2514.62 863.045 2519.17 860.531Z"/><path fill="#88A7B9" transform="matrix(0.363636 0 0 0.363932 0 3.05176e-05)" d="M2125.71 176.396C2137.62 172.843 2165.12 179.11 2175.3 185.303C2189.84 194.144 2190.87 196.688 2208.59 194.427C2245.18 189.759 2281.4 210.878 2300.87 241.211C2309.6 254.219 2311.22 267.237 2314.76 282.462C2315.69 286.456 2313.49 306.254 2315.94 308.599C2349.58 340.706 2358.58 384.748 2341.05 427.839C2339.01 432.868 2326.54 446.861 2327.05 451.227C2327.33 453.6 2343.16 474.849 2342.72 480.885C2344.34 487.391 2344.47 491.889 2344.14 498.629C2344.87 522.839 2335.87 527.047 2326.39 546.151L2325.77 547.415L2324.41 546.425C2323.88 565.245 2323.91 576.442 2315.93 594.315C2305.71 617.193 2284.57 634.547 2261.41 643.235C2237.15 652.192 2210.35 651.307 2186.74 640.768C2163.69 630.25 2143.49 611.057 2135.32 587.103C2126.81 562.723 2127.79 539.083 2136.63 515.038C2136.02 508.104 2151.85 489.711 2151.52 488.772C2145.53 471.865 2144.38 462.958 2153.54 443.255C2138.89 426.688 2131.48 403.215 2131.9 381.256C2131.98 377.138 2134.28 372.512 2134.63 367.701C2130.38 360.695 2115.43 359.515 2107.99 359.405C2103.43 359.337 2084.04 366.854 2081.14 369.851C2079.69 374.848 2081.43 377.293 2082.74 383.214C2090.38 408.712 2085.92 445.337 2073.93 468.518C2063.62 485.504 2076.3 488.631 2081.85 503.088C2103.53 559.493 2078.39 624.086 2018.73 643.496C1928.07 672.99 1850.63 581.54 1892.61 494.909C1859.15 453.205 1859.71 384.97 1879.26 337.857C1882.64 329.702 1890.02 322.507 1893.94 315.074C1895.71 311.72 1885.97 290.313 1885.54 285.676C1879.9 255.839 1889.09 225.72 1911.79 205.056C1929.51 188.846 1953.06 180.52 1977.04 181.984C1997.89 183.178 2020.14 193.795 2035.34 208.741C2037.79 211.149 2043.69 221.914 2047.57 226.293C2051.77 223.538 2058.11 213.993 2061.8 209.497C2078.02 189.707 2100.87 179.473 2125.71 176.396ZM2271.76 303.145C2274.85 305.788 2273.57 305.418 2277.17 305.911C2280.11 303.781 2280.73 301.633 2281.29 298.046C2287.55 257.477 2253.27 221.152 2212.49 224.602C2211.07 224.722 2211.63 224.711 2210.14 224.55C2210 224.639 2199.99 227.699 2197.72 228.704L2196.38 230.515C2196.74 231.857 2197.17 234.259 2198.72 234.58C2231.08 241.277 2258.34 254.464 2267.97 289.044C2269.15 293.28 2270.88 298.337 2271.76 303.145Z"/><path fill="#88A7B9" transform="matrix(0.363636 0 0 0.363932 0 3.05176e-05)" d="M1977.79 797.5C2013.35 790.407 2048.61 811.86 2070.5 838C2081.76 837.908 2094.03 837.187 2104.85 840.111C2128.95 846.623 2147.79 860.141 2160.08 882.001C2172.4 903.467 2175.49 929.013 2168.64 952.798C2162.15 974.923 2148.46 993.54 2128.07 1004.61C2106.81 1016.39 2081.7 1019.07 2058.43 1012.04C2034.04 1004.51 2017.15 988.186 2005.47 965.795C1993.2 971.168 1979.34 977.419 1966 978.751C1958.78 979.472 1952.38 978.623 1944.84 979.7C1942.19 983.609 1937.02 1003.46 1932.77 1011.12C1928.92 1018.07 1922.95 1024.06 1920.88 1028.7C1920.3 1035 1936.91 1060.37 1935.18 1071.63C1935.2 1073.49 1936.24 1088.95 1937.06 1089.31C1955.96 1097.65 1968.04 1101.25 1980.81 1118.91C1992.22 1113.32 2005.43 1111.02 2015.89 1106.71C2021.6 1101.14 2025.82 1093.02 2032.09 1088.2C2102 1034.5 2194.34 1096.74 2172.77 1182.32C2171.16 1192.39 2160.43 1211.08 2153.57 1218.63C2140.08 1233.86 2125.27 1241.74 2105.95 1247.13C2101.22 1250.85 2078.16 1248.07 2076.21 1250.04C2052.61 1273.87 2031.54 1288.89 1996.02 1291.32C1958.87 1293.87 1932.45 1280.7 1904.94 1256.8C1872.78 1263.61 1836.82 1249.51 1814.07 1227.44C1802.45 1216.16 1792.24 1194.77 1787.85 1179.19C1786.33 1173.79 1785.83 1147.51 1785.75 1140.96C1771.47 1127.73 1765.59 1120.84 1756.55 1104.39C1728.43 1053.21 1738.86 980.893 1787 945.408C1788.6 941.167 1787.08 936.52 1787.07 932.041C1787.05 873.052 1836.89 828.583 1895.51 835.703C1900.71 836.335 1902.91 838.222 1908.27 835.434C1912.39 829.31 1916.7 826.469 1921.84 821.602C1937.91 806.383 1956.14 800.003 1977.79 797.5ZM1830.24 934.92C1835.76 909.296 1855.65 888.751 1880.07 879.968C1884.91 878.227 1891.42 877.946 1895.64 875.313C1895.08 873.166 1895.25 871.91 1893.7 870.992C1889.46 868.481 1877.31 868.688 1872.69 869.287C1839.66 874.06 1816.18 901.895 1818.28 936.539C1818.5 940.156 1819.83 943.96 1822.65 946.36C1829.21 946.862 1829.66 939.971 1830.24 934.92Z"/><path fill="#88A7B9" transform="matrix(0.363636 0 0 0.363932 0 3.05176e-05)" d="M1736.39 214.529C1738.85 214.22 1741.34 214.047 1743.82 214.013C1788.44 213.652 1825.08 246.391 1834.08 289.199C1836.32 299.813 1836.11 308.755 1836 319.468C1849.83 338.801 1853.6 363.999 1841.47 385.167C1839.66 388.324 1828.88 400.643 1830.01 402.78C1831.93 406.374 1840.78 417.032 1842.81 421.59C1855.4 449.937 1854.3 481.285 1842.99 509.93C1841.09 514.709 1834.53 521.779 1833.52 526.916C1833.05 532.762 1835.28 539.477 1835.82 545.196C1840.58 596.377 1807.95 638.454 1756.74 647.581C1732.41 650.977 1707.7 644.757 1687.88 630.24C1660 610.144 1646.43 575.896 1650.32 541.531C1651.4 532.022 1655.81 517.929 1655.89 508.451C1655.9 507.104 1648.26 495.515 1646.85 493.137C1634.44 471.818 1628.62 447.297 1630.13 422.674C1632.07 394.666 1642.33 373.922 1657.93 351.827C1659.25 349.966 1651.92 332.735 1651.39 327.132C1645.76 267.136 1674.94 222.269 1736.39 214.529Z"/><path fill="#88A7B9" transform="matrix(0.363636 0 0 0.363932 0 3.05176e-05)" d="M1684.92 1536L1684.24 1534.39C1626.79 1515.95 1593.3 1459.31 1613.46 1400.78C1623.01 1373.06 1634.88 1347.76 1651.01 1323.19C1653.35 1319.63 1654.29 1314.39 1656.6 1310.72C1672.47 1290.89 1685.43 1268.9 1700.62 1248.51C1704.54 1243.23 1715.95 1232.96 1713.47 1226.43C1670.38 1218.5 1625.89 1228.07 1589.87 1253.02C1570.79 1266.44 1548.37 1289.59 1539.64 1312.22C1539.43 1312.75 1539.5 1313.34 1539.53 1313.91C1543.49 1315.34 1547.4 1313.96 1551.46 1313.2C1564.56 1310.74 1578.77 1316.26 1589.83 1322.91C1597.62 1327.59 1599.62 1330.42 1605.3 1336.58C1613.37 1336.59 1626.79 1321.52 1633.65 1326.74C1628.39 1336.28 1615.93 1363.28 1605.76 1367.55C1595.6 1371.81 1593.69 1354.33 1591.38 1349.66C1581.29 1329.33 1549.23 1325.55 1532.26 1338.8C1526.71 1343.15 1524.24 1356.47 1512.75 1350.51C1510.97 1349.42 1509.45 1345.54 1509.6 1343.68C1511.15 1324.37 1521.63 1302.6 1532.38 1286.71C1534.44 1283.67 1534.28 1283.29 1537.02 1280.34L1536.94 1279.31C1533.39 1279.2 1533.49 1279.61 1530.78 1279.76C1501.42 1281.44 1472.44 1274.5 1447.54 1258.57C1444.16 1256.41 1435.41 1247.39 1433.26 1246.92C1423.61 1244.83 1411.86 1247.64 1401.69 1245.46C1395.57 1244.15 1390.88 1242.29 1385.32 1240.08C1352.49 1227.29 1329.02 1197.9 1323.82 1163.05C1323.43 1160.35 1321.35 1133.27 1322 1134.03C1283.87 1089.07 1278.95 1033.54 1309.21 982.947C1313.88 978.348 1320.86 966.664 1326.09 963.637C1333.41 959.409 1326.83 951.811 1325.99 943.288C1320.31 885.911 1366.63 833.364 1425.25 838.158C1428.71 838.441 1444.32 840.844 1446.98 840.104C1451.4 835.806 1457.69 827.001 1461.87 823.883C1501.83 794.143 1555.01 796.947 1590.95 831.664C1591.94 832.618 1597.3 830.952 1598.94 830.771C1653.68 824.703 1696.1 864.338 1699.38 918.329C1699.6 922.019 1715.02 933.685 1717.41 937.633C1719.89 941.157 1722.59 948.703 1724.56 952.872C1761 1030.06 1685.11 1114.01 1604.99 1079.12C1600.76 1077.28 1596.71 1075.03 1592.54 1073.1C1558.5 1096.62 1528.35 1100.7 1489.66 1090.8C1484.19 1089.4 1475.52 1082.91 1469.91 1082.46C1466.44 1093.94 1491.59 1124.57 1507.05 1127.05C1530.21 1130.75 1559.08 1133.32 1581.86 1125.46C1586.3 1123.72 1594.02 1116.41 1597.29 1113.62C1606.92 1105.38 1627.16 1099.58 1639.14 1099.11C1657.21 1098.44 1674.79 1105.06 1687.95 1117.47C1729.08 1156.72 1700.1 1199.34 1702.86 1205.97C1706.52 1206.63 1715.44 1208.51 1718.14 1206.77C1720.97 1200.11 1730.44 1174.91 1740.43 1195.67C1741.97 1198.89 1738.79 1208.52 1740.98 1213.15C1753.11 1221.54 1773.14 1226.49 1785.83 1235.57C1823.91 1262.83 1851.65 1305.27 1860.15 1351.45C1862.52 1364.37 1867.48 1406.4 1853.85 1413.33C1844.24 1413.69 1842.13 1398.31 1838.72 1391.74C1836.95 1388.31 1831.26 1385.28 1828.48 1382.42C1825.97 1380.03 1825.35 1373.94 1824.69 1373.29C1820.76 1369.36 1820.41 1365.21 1819.93 1359.24C1824.27 1359.38 1836.1 1365.35 1840.31 1367.51L1841.22 1366.31L1842.6 1366.51C1842.96 1362.37 1839.76 1344.02 1838.49 1339.45C1828.76 1304.48 1803.35 1268.26 1772.11 1249.36C1763.17 1243.96 1746.76 1234.27 1736.97 1232.77L1736.35 1233.71C1741.7 1242.96 1744.73 1248.44 1751.19 1256.78C1756.47 1263.59 1760.59 1277.34 1765.73 1284.72C1786.82 1318.02 1819.64 1385.43 1823.57 1423.97C1824.72 1436.56 1823.64 1449.24 1820.37 1461.45C1813.76 1486.24 1796.36 1510.68 1773.95 1523.83C1766.42 1528.24 1749.67 1533.21 1745.84 1536L1684.92 1536ZM1659.65 927.644C1662.08 931.776 1660.77 930.95 1664.48 932.07C1667.07 930.289 1667.64 929.123 1668.22 925.859C1673.98 893.345 1648.25 865.308 1617.34 859.779C1614.88 859.34 1609.95 858.629 1607.72 859.492C1602.48 859.858 1594.74 859.972 1591.14 864.282C1591.98 872.499 1604.93 870.942 1611.44 873.005C1635.69 880.7 1652.8 900.652 1659.09 925.045C1659.31 925.905 1659.49 926.772 1659.65 927.644ZM1762.38 1467.12C1765.24 1462.39 1765.87 1457.43 1761.11 1453.6C1753.02 1453.57 1740.42 1472.87 1715.97 1472.6C1688.83 1472.3 1680.8 1454.35 1670.99 1453.68C1669.58 1455.33 1666.91 1457.9 1667.48 1460.09C1672.77 1480.58 1709.38 1488.23 1724.99 1486.17C1739.26 1484.27 1752.45 1477.55 1762.38 1467.12ZM1677.13 1403.35C1682.22 1406.18 1685.75 1411.22 1690.17 1412.82C1700.23 1410.13 1690.59 1392.14 1682.39 1389.31C1674.54 1386.6 1674.63 1386.85 1666.27 1387.01C1656.48 1391.4 1649.4 1397.83 1648.71 1409.3L1649.99 1410.88C1660.59 1411.02 1665.36 1398.16 1677.13 1403.35ZM1743.03 1393.71C1740.96 1397.95 1736.7 1405.32 1738.71 1409.95C1746.12 1411.32 1748.29 1402.24 1762.14 1400.79C1771.31 1403.6 1774.65 1412.44 1780.95 1411.02C1786.24 1404.72 1778.04 1394.55 1772.79 1390.39C1769.1 1387.46 1764.57 1386.87 1760.01 1386.64C1752.63 1387.44 1749.08 1389.74 1743.03 1393.71Z"/><path fill="#88A7B9" transform="matrix(0.363636 0 0 0.363932 0 3.05176e-05)" d="M1728.16 0L1752.44 0C1756.11 2.43417 1767.29 5.67335 1772.9 9.90498C1777.03 13.0191 1783.55 23.2082 1785.56 23.3551C1797.3 24.2143 1804.25 21.4276 1816.42 25.7687C1828 29.9005 1838.05 39.0433 1843.62 50.1854C1849.13 61.2346 1850.82 77.893 1846.37 89.6073C1845.37 92.2263 1839.54 101.453 1839.71 103.037C1840.81 113.192 1845.16 123.257 1841.28 133.78C1840.22 136.644 1829.32 148.785 1826.05 150.795C1823.78 152.184 1814.7 154.256 1812.7 156.002C1812.78 155.93 1807.83 163.496 1807.68 163.732C1799.5 176.95 1793.07 183.196 1778.49 188.612C1761.69 194.852 1750.49 195.262 1734.26 187.22C1732.83 186.511 1721.36 181.791 1720.47 181.842C1707.67 182.574 1701.19 186.406 1688.2 179.987C1685.32 178.563 1682.31 176.618 1679.83 174.17C1675.49 169.888 1671.43 162.547 1667.22 158.342C1661.04 152.168 1652.9 147.299 1647.46 140.244C1643.79 135.485 1642.54 132.018 1640.56 126.674C1635.8 113.837 1636.69 101.092 1644.23 89.5567C1645.5 87.6069 1649.61 80.639 1649.54 79.2173C1649 67.7148 1643.62 56.058 1650.53 44.724C1661.56 26.6243 1677.12 27.9615 1694.83 24.6939C1695.4 24.5896 1700.38 18.2977 1701.41 16.8971C1708.27 7.62695 1717.15 3.22014 1728.16 0Z"/></svg>