<svg viewBox="0 0 1440 900" xmlns="http://www.w3.org/2000/svg">
  <!-- Background -->
  <rect width="1440" height="900" fill="#2d3436"/>

  <!-- Trail background placeholder -->
  <rect width="1440" height="900" fill="url(#bgGradient)" opacity="0.3"/>
  <defs>
    <linearGradient id="bgGradient" x1="0%" y1="0%" x2="100%" y2="100%">
      <stop offset="0%" style="stop-color:#c0a060"/>
      <stop offset="100%" style="stop-color:#4a6741"/>
    </linearGradient>
  </defs>

  <!-- HEADER ROW -->
  <!-- Top Left: Logo & Tagline with back navigation -->
  <g transform="translate(40, 30)">
    <text x="0" y="30" fill="white" font-family="Georgia, serif" font-size="32" font-weight="bold">RainCheck</text>
    <text x="0" y="52" fill="rgba(255,255,255,0.7)" font-family="Arial" font-size="14">Training Statistics</text>
  </g>

  <!-- Top Right: Current Weather (same as homepage) -->
  <g transform="translate(1400, 30)">
    <text x="0" y="20" fill="rgba(255,255,255,0.7)" font-family="Arial" font-size="12" text-anchor="end">Balbriggan, Ireland</text>
    <text x="0" y="45" fill="white" font-family="Arial" font-size="24" text-anchor="end">16:43</text>
    <text x="0" y="65" fill="white" font-family="Arial" font-size="14" text-anchor="end">4C  |  0%  |  18 km/h</text>
  </g>

  <!-- SUMMARY STATS ROW (y=100) - 4 stat cards -->
  <!-- Total width: 1360px (1440 - 40*2 padding), 4 boxes with 20px gaps = (1360 - 60) / 4 = 325px each -->

  <!-- Stat 1: Total Runs -->
  <rect x="40" y="100" width="325" height="100" rx="12" fill="rgba(255,255,255,0.1)" stroke="rgba(255,255,255,0.15)" stroke-width="1"/>
  <g transform="translate(60, 125)">
    <text x="0" y="0" fill="rgba(255,255,255,0.6)" font-family="Arial" font-size="11">TOTAL RUNS</text>
    <text x="0" y="35" fill="white" font-family="Arial" font-size="36" font-weight="bold">47</text>
    <text x="70" y="35" fill="rgba(255,255,255,0.5)" font-family="Arial" font-size="14">runs</text>
    <text x="200" y="15" fill="#4CAF50" font-family="Arial" font-size="13">+5 this week</text>
  </g>

  <!-- Stat 2: Total Distance -->
  <rect x="385" y="100" width="325" height="100" rx="12" fill="rgba(255,255,255,0.1)" stroke="rgba(255,255,255,0.15)" stroke-width="1"/>
  <g transform="translate(405, 125)">
    <text x="0" y="0" fill="rgba(255,255,255,0.6)" font-family="Arial" font-size="11">TOTAL DISTANCE</text>
    <text x="0" y="35" fill="white" font-family="Arial" font-size="36" font-weight="bold">312.5</text>
    <text x="110" y="35" fill="rgba(255,255,255,0.5)" font-family="Arial" font-size="14">km</text>
    <text x="200" y="15" fill="#4CAF50" font-family="Arial" font-size="13">+28.5 this week</text>
  </g>

  <!-- Stat 3: Average Pace -->
  <rect x="730" y="100" width="325" height="100" rx="12" fill="rgba(255,255,255,0.1)" stroke="rgba(255,255,255,0.15)" stroke-width="1"/>
  <g transform="translate(750, 125)">
    <text x="0" y="0" fill="rgba(255,255,255,0.6)" font-family="Arial" font-size="11">AVERAGE PACE</text>
    <text x="0" y="35" fill="white" font-family="Arial" font-size="36" font-weight="bold">6:12</text>
    <text x="85" y="35" fill="rgba(255,255,255,0.5)" font-family="Arial" font-size="14">/km</text>
    <text x="200" y="15" fill="#2196F3" font-family="Arial" font-size="13">-0:08 improvement</text>
  </g>

  <!-- Stat 4: Current Streak -->
  <rect x="1075" y="100" width="325" height="100" rx="12" fill="rgba(255,255,255,0.1)" stroke="rgba(255,255,255,0.15)" stroke-width="1"/>
  <g transform="translate(1095, 125)">
    <text x="0" y="0" fill="rgba(255,255,255,0.6)" font-family="Arial" font-size="11">CURRENT STREAK</text>
    <text x="0" y="35" fill="white" font-family="Arial" font-size="36" font-weight="bold">12</text>
    <text x="45" y="35" fill="rgba(255,255,255,0.5)" font-family="Arial" font-size="14">days</text>
    <text x="200" y="15" fill="#FF9800" font-family="Arial" font-size="13">Best: 21 days</text>
  </g>

  <!-- MAIN CONTENT AREA - Two Column Layout -->
  <!-- Left: Charts (65%) | Right: Progress & Completion (35%) -->

  <!-- WEEKLY MILEAGE CHART (Left Side, Large) -->
  <text x="40" y="235" fill="rgba(255,255,255,0.5)" font-family="Arial" font-size="12" font-weight="bold">WEEKLY MILEAGE</text>
  <rect x="40" y="250" width="870" height="280" rx="12" fill="rgba(255,255,255,0.1)" stroke="rgba(255,255,255,0.15)" stroke-width="1"/>

  <!-- Chart Area -->
  <g transform="translate(80, 280)">
    <!-- Y-axis labels -->
    <text x="-10" y="5" fill="rgba(255,255,255,0.5)" font-family="Arial" font-size="10" text-anchor="end">40km</text>
    <text x="-10" y="55" fill="rgba(255,255,255,0.5)" font-family="Arial" font-size="10" text-anchor="end">30km</text>
    <text x="-10" y="105" fill="rgba(255,255,255,0.5)" font-family="Arial" font-size="10" text-anchor="end">20km</text>
    <text x="-10" y="155" fill="rgba(255,255,255,0.5)" font-family="Arial" font-size="10" text-anchor="end">10km</text>
    <text x="-10" y="205" fill="rgba(255,255,255,0.5)" font-family="Arial" font-size="10" text-anchor="end">0km</text>

    <!-- Grid lines -->
    <line x1="0" y1="0" x2="780" y2="0" stroke="rgba(255,255,255,0.1)" stroke-width="1"/>
    <line x1="0" y1="50" x2="780" y2="50" stroke="rgba(255,255,255,0.1)" stroke-width="1"/>
    <line x1="0" y1="100" x2="780" y2="100" stroke="rgba(255,255,255,0.1)" stroke-width="1"/>
    <line x1="0" y1="150" x2="780" y2="150" stroke="rgba(255,255,255,0.1)" stroke-width="1"/>
    <line x1="0" y1="200" x2="780" y2="200" stroke="rgba(255,255,255,0.1)" stroke-width="1"/>

    <!-- Target line (dashed) -->
    <line x1="0" y1="75" x2="780" y2="50" stroke="#FF9800" stroke-width="2" stroke-dasharray="5,5" opacity="0.7"/>

    <!-- Actual mileage bars -->
    <rect x="10" y="175" width="50" height="25" rx="4" fill="#4CAF50" opacity="0.8"/>
    <rect x="75" y="162" width="50" height="38" rx="4" fill="#4CAF50" opacity="0.8"/>
    <rect x="140" y="150" width="50" height="50" rx="4" fill="#4CAF50" opacity="0.8"/>
    <rect x="205" y="137" width="50" height="63" rx="4" fill="#4CAF50" opacity="0.8"/>
    <rect x="270" y="125" width="50" height="75" rx="4" fill="#4CAF50" opacity="0.8"/>
    <rect x="335" y="112" width="50" height="88" rx="4" fill="#4CAF50" opacity="0.8"/>
    <rect x="400" y="100" width="50" height="100" rx="4" fill="#4CAF50" opacity="0.8"/>
    <rect x="465" y="87" width="50" height="113" rx="4" fill="#4CAF50" opacity="0.8"/>
    <rect x="530" y="75" width="50" height="125" rx="4" fill="#4CAF50" opacity="0.8"/>
    <rect x="595" y="62" width="50" height="138" rx="4" fill="#4CAF50" opacity="0.8"/>
    <rect x="660" y="50" width="50" height="150" rx="4" fill="#4CAF50" opacity="0.8"/>
    <rect x="725" y="37" width="50" height="163" rx="4" fill="rgba(76,175,80,0.4)" stroke="#4CAF50" stroke-width="2" stroke-dasharray="4,4"/>

    <!-- X-axis labels (weeks) -->
    <text x="35" y="220" fill="rgba(255,255,255,0.5)" font-family="Arial" font-size="10" text-anchor="middle">W1</text>
    <text x="100" y="220" fill="rgba(255,255,255,0.5)" font-family="Arial" font-size="10" text-anchor="middle">W2</text>
    <text x="165" y="220" fill="rgba(255,255,255,0.5)" font-family="Arial" font-size="10" text-anchor="middle">W3</text>
    <text x="230" y="220" fill="rgba(255,255,255,0.5)" font-family="Arial" font-size="10" text-anchor="middle">W4</text>
    <text x="295" y="220" fill="rgba(255,255,255,0.5)" font-family="Arial" font-size="10" text-anchor="middle">W5</text>
    <text x="360" y="220" fill="rgba(255,255,255,0.5)" font-family="Arial" font-size="10" text-anchor="middle">W6</text>
    <text x="425" y="220" fill="rgba(255,255,255,0.5)" font-family="Arial" font-size="10" text-anchor="middle">W7</text>
    <text x="490" y="220" fill="rgba(255,255,255,0.5)" font-family="Arial" font-size="10" text-anchor="middle">W8</text>
    <text x="555" y="220" fill="rgba(255,255,255,0.5)" font-family="Arial" font-size="10" text-anchor="middle">W9</text>
    <text x="620" y="220" fill="rgba(255,255,255,0.5)" font-family="Arial" font-size="10" text-anchor="middle">W10</text>
    <text x="685" y="220" fill="rgba(255,255,255,0.5)" font-family="Arial" font-size="10" text-anchor="middle">W11</text>
    <text x="750" y="220" fill="white" font-family="Arial" font-size="10" font-weight="bold" text-anchor="middle">W12</text>
  </g>

  <!-- Chart Legend -->
  <g transform="translate(780, 260)">
    <rect x="0" y="0" width="12" height="12" rx="2" fill="#4CAF50"/>
    <text x="18" y="10" fill="rgba(255,255,255,0.7)" font-family="Arial" font-size="11">Actual</text>
    <line x1="80" y1="6" x2="100" y2="6" stroke="#FF9800" stroke-width="2" stroke-dasharray="4,4"/>
    <text x="108" y="10" fill="rgba(255,255,255,0.7)" font-family="Arial" font-size="11">Target</text>
  </g>

  <!-- RIGHT SIDE PANELS -->

  <!-- Training Phase Progress -->
  <text x="940" y="235" fill="rgba(255,255,255,0.5)" font-family="Arial" font-size="12" font-weight="bold">TRAINING PROGRESS</text>
  <rect x="940" y="250" width="460" height="130" rx="12" fill="rgba(255,255,255,0.1)" stroke="rgba(255,255,255,0.15)" stroke-width="1"/>

  <g transform="translate(960, 275)">
    <!-- Phase indicator -->
    <text x="0" y="0" fill="rgba(255,255,255,0.6)" font-family="Arial" font-size="11">CURRENT PHASE</text>
    <rect x="0" y="10" width="110" height="24" rx="4" fill="rgba(33,150,243,0.3)"/>
    <text x="55" y="27" fill="#2196F3" font-family="Arial" font-size="12" font-weight="bold" text-anchor="middle">Base Building</text>

    <!-- Week progress -->
    <text x="200" y="0" fill="rgba(255,255,255,0.6)" font-family="Arial" font-size="11">WEEK</text>
    <text x="200" y="27" fill="white" font-family="Arial" font-size="18" font-weight="bold">4 of 27</text>

    <!-- Progress bar -->
    <text x="0" y="60" fill="rgba(255,255,255,0.6)" font-family="Arial" font-size="11">OVERALL PROGRESS</text>
    <rect x="0" y="72" width="420" height="12" rx="6" fill="rgba(255,255,255,0.2)"/>
    <rect x="0" y="72" width="62" height="12" rx="6" fill="#2196F3"/>
    <text x="430" y="82" fill="rgba(255,255,255,0.5)" font-family="Arial" font-size="11">15%</text>
  </g>

  <!-- Completion Rate -->
  <text x="940" y="405" fill="rgba(255,255,255,0.5)" font-family="Arial" font-size="12" font-weight="bold">COMPLETION RATE</text>
  <rect x="940" y="420" width="460" height="110" rx="12" fill="rgba(255,255,255,0.1)" stroke="rgba(255,255,255,0.15)" stroke-width="1"/>

  <g transform="translate(960, 445)">
    <!-- Circular progress indicator -->
    <circle cx="40" cy="40" r="35" fill="none" stroke="rgba(255,255,255,0.2)" stroke-width="8"/>
    <circle cx="40" cy="40" r="35" fill="none" stroke="#4CAF50" stroke-width="8" stroke-dasharray="176 220" stroke-linecap="round" transform="rotate(-90 40 40)"/>
    <text x="40" y="45" fill="white" font-family="Arial" font-size="18" font-weight="bold" text-anchor="middle">80%</text>

    <!-- Stats breakdown -->
    <text x="120" y="15" fill="rgba(255,255,255,0.6)" font-family="Arial" font-size="11">COMPLETED</text>
    <text x="120" y="35" fill="#4CAF50" font-family="Arial" font-size="20" font-weight="bold">38</text>

    <text x="220" y="15" fill="rgba(255,255,255,0.6)" font-family="Arial" font-size="11">SCHEDULED</text>
    <text x="220" y="35" fill="rgba(255,255,255,0.8)" font-family="Arial" font-size="20" font-weight="bold">47</text>

    <text x="320" y="15" fill="rgba(255,255,255,0.6)" font-family="Arial" font-size="11">MISSED</text>
    <text x="320" y="35" fill="#f44336" font-family="Arial" font-size="20" font-weight="bold">9</text>

    <!-- Target indicator -->
    <text x="120" y="70" fill="rgba(255,255,255,0.5)" font-family="Arial" font-size="11">Target: 80% | Status: On Track</text>
  </g>

  <!-- PACE PROGRESSION CHART (Bottom Left) -->
  <text x="40" y="555" fill="rgba(255,255,255,0.5)" font-family="Arial" font-size="12" font-weight="bold">PACE PROGRESSION</text>
  <rect x="40" y="570" width="660" height="200" rx="12" fill="rgba(255,255,255,0.1)" stroke="rgba(255,255,255,0.15)" stroke-width="1"/>

  <g transform="translate(80, 600)">
    <!-- Y-axis labels (pace - inverted, lower is better) -->
    <text x="-10" y="5" fill="rgba(255,255,255,0.5)" font-family="Arial" font-size="10" text-anchor="end">5:30</text>
    <text x="-10" y="45" fill="rgba(255,255,255,0.5)" font-family="Arial" font-size="10" text-anchor="end">6:00</text>
    <text x="-10" y="85" fill="rgba(255,255,255,0.5)" font-family="Arial" font-size="10" text-anchor="end">6:30</text>
    <text x="-10" y="125" fill="rgba(255,255,255,0.5)" font-family="Arial" font-size="10" text-anchor="end">7:00</text>

    <!-- Grid lines -->
    <line x1="0" y1="0" x2="560" y2="0" stroke="rgba(255,255,255,0.1)" stroke-width="1"/>
    <line x1="0" y1="40" x2="560" y2="40" stroke="rgba(255,255,255,0.1)" stroke-width="1"/>
    <line x1="0" y1="80" x2="560" y2="80" stroke="rgba(255,255,255,0.1)" stroke-width="1"/>
    <line x1="0" y1="120" x2="560" y2="120" stroke="rgba(255,255,255,0.1)" stroke-width="1"/>

    <!-- Target pace line -->
    <line x1="0" y1="17" x2="560" y2="17" stroke="#FF9800" stroke-width="2" stroke-dasharray="5,5" opacity="0.7"/>
    <text x="570" y="21" fill="#FF9800" font-family="Arial" font-size="10">5:41</text>

    <!-- Pace line (improving over time) -->
    <polyline points="0,110 56,105 112,95 168,90 224,85 280,75 336,70 392,60 448,55 504,45 560,40"
              fill="none" stroke="#2196F3" stroke-width="3" stroke-linecap="round" stroke-linejoin="round"/>

    <!-- Data points -->
    <circle cx="0" cy="110" r="5" fill="#2196F3"/>
    <circle cx="56" cy="105" r="5" fill="#2196F3"/>
    <circle cx="112" cy="95" r="5" fill="#2196F3"/>
    <circle cx="168" cy="90" r="5" fill="#2196F3"/>
    <circle cx="224" cy="85" r="5" fill="#2196F3"/>
    <circle cx="280" cy="75" r="5" fill="#2196F3"/>
    <circle cx="336" cy="70" r="5" fill="#2196F3"/>
    <circle cx="392" cy="60" r="5" fill="#2196F3"/>
    <circle cx="448" cy="55" r="5" fill="#2196F3"/>
    <circle cx="504" cy="45" r="5" fill="#2196F3"/>
    <circle cx="560" cy="40" r="6" fill="#2196F3" stroke="white" stroke-width="2"/>

    <!-- X-axis labels -->
    <text x="0" y="145" fill="rgba(255,255,255,0.5)" font-family="Arial" font-size="9" text-anchor="middle">Nov 1</text>
    <text x="140" y="145" fill="rgba(255,255,255,0.5)" font-family="Arial" font-size="9" text-anchor="middle">Nov 8</text>
    <text x="280" y="145" fill="rgba(255,255,255,0.5)" font-family="Arial" font-size="9" text-anchor="middle">Nov 15</text>
    <text x="420" y="145" fill="rgba(255,255,255,0.5)" font-family="Arial" font-size="9" text-anchor="middle">Nov 22</text>
    <text x="560" y="145" fill="white" font-family="Arial" font-size="9" font-weight="bold" text-anchor="middle">Nov 29</text>
  </g>

  <!-- LONG RUN PROGRESSION (Bottom Right) -->
  <text x="720" y="555" fill="rgba(255,255,255,0.5)" font-family="Arial" font-size="12" font-weight="bold">LONG RUN PROGRESSION</text>
  <rect x="720" y="570" width="680" height="200" rx="12" fill="rgba(255,255,255,0.1)" stroke="rgba(255,255,255,0.15)" stroke-width="1"/>

  <g transform="translate(760, 600)">
    <!-- Y-axis labels -->
    <text x="-10" y="5" fill="rgba(255,255,255,0.5)" font-family="Arial" font-size="10" text-anchor="end">21km</text>
    <text x="-10" y="35" fill="rgba(255,255,255,0.5)" font-family="Arial" font-size="10" text-anchor="end">18km</text>
    <text x="-10" y="65" fill="rgba(255,255,255,0.5)" font-family="Arial" font-size="10" text-anchor="end">15km</text>
    <text x="-10" y="95" fill="rgba(255,255,255,0.5)" font-family="Arial" font-size="10" text-anchor="end">12km</text>
    <text x="-10" y="125" fill="rgba(255,255,255,0.5)" font-family="Arial" font-size="10" text-anchor="end">9km</text>

    <!-- Grid lines -->
    <line x1="0" y1="0" x2="580" y2="0" stroke="rgba(255,255,255,0.1)" stroke-width="1"/>
    <line x1="0" y1="30" x2="580" y2="30" stroke="rgba(255,255,255,0.1)" stroke-width="1"/>
    <line x1="0" y1="60" x2="580" y2="60" stroke="rgba(255,255,255,0.1)" stroke-width="1"/>
    <line x1="0" y1="90" x2="580" y2="90" stroke="rgba(255,255,255,0.1)" stroke-width="1"/>
    <line x1="0" y1="120" x2="580" y2="120" stroke="rgba(255,255,255,0.1)" stroke-width="1"/>

    <!-- Race distance line -->
    <line x1="0" y1="0" x2="580" y2="0" stroke="#9C27B0" stroke-width="2" stroke-dasharray="5,5" opacity="0.7"/>
    <text x="590" y="5" fill="#9C27B0" font-family="Arial" font-size="10">21.1km</text>

    <!-- Long run bars -->
    <rect x="20" y="110" width="40" height="10" rx="3" fill="#9C27B0" opacity="0.8"/>
    <rect x="85" y="100" width="40" height="20" rx="3" fill="#9C27B0" opacity="0.8"/>
    <rect x="150" y="90" width="40" height="30" rx="3" fill="#9C27B0" opacity="0.8"/>
    <rect x="215" y="80" width="40" height="40" rx="3" fill="#9C27B0" opacity="0.8"/>
    <rect x="280" y="70" width="40" height="50" rx="3" fill="#9C27B0" opacity="0.8"/>
    <rect x="345" y="60" width="40" height="60" rx="3" fill="#9C27B0" opacity="0.8"/>
    <rect x="410" y="55" width="40" height="65" rx="3" fill="#9C27B0" opacity="0.8"/>
    <rect x="475" y="50" width="40" height="70" rx="3" fill="rgba(156,39,176,0.4)" stroke="#9C27B0" stroke-width="2" stroke-dasharray="4,4"/>

    <!-- Distance labels on bars -->
    <text x="40" y="105" fill="white" font-family="Arial" font-size="9" text-anchor="middle">9km</text>
    <text x="105" y="95" fill="white" font-family="Arial" font-size="9" text-anchor="middle">10km</text>
    <text x="170" y="85" fill="white" font-family="Arial" font-size="9" text-anchor="middle">11km</text>
    <text x="235" y="75" fill="white" font-family="Arial" font-size="9" text-anchor="middle">12km</text>
    <text x="300" y="65" fill="white" font-family="Arial" font-size="9" text-anchor="middle">13km</text>
    <text x="365" y="55" fill="white" font-family="Arial" font-size="9" text-anchor="middle">14km</text>
    <text x="430" y="50" fill="white" font-family="Arial" font-size="9" text-anchor="middle">14.5km</text>
    <text x="495" y="45" fill="rgba(255,255,255,0.7)" font-family="Arial" font-size="9" text-anchor="middle">15km</text>

    <!-- X-axis labels (weeks) -->
    <text x="40" y="145" fill="rgba(255,255,255,0.5)" font-family="Arial" font-size="9" text-anchor="middle">W1</text>
    <text x="105" y="145" fill="rgba(255,255,255,0.5)" font-family="Arial" font-size="9" text-anchor="middle">W2</text>
    <text x="170" y="145" fill="rgba(255,255,255,0.5)" font-family="Arial" font-size="9" text-anchor="middle">W3</text>
    <text x="235" y="145" fill="rgba(255,255,255,0.5)" font-family="Arial" font-size="9" text-anchor="middle">W4</text>
    <text x="300" y="145" fill="rgba(255,255,255,0.5)" font-family="Arial" font-size="9" text-anchor="middle">W5</text>
    <text x="365" y="145" fill="rgba(255,255,255,0.5)" font-family="Arial" font-size="9" text-anchor="middle">W6</text>
    <text x="430" y="145" fill="rgba(255,255,255,0.5)" font-family="Arial" font-size="9" text-anchor="middle">W7</text>
    <text x="495" y="145" fill="white" font-family="Arial" font-size="9" font-weight="bold" text-anchor="middle">W8</text>
  </g>

  <!-- Run Type Legend (bottom) -->
  <g transform="translate(720, 795)">
    <circle cx="10" cy="8" r="5" fill="#4CAF50"/>
    <text x="22" y="12" fill="rgba(255,255,255,0.6)" font-family="Arial" font-size="10">Easy Run</text>
    <circle cx="100" cy="8" r="5" fill="#9C27B0"/>
    <text x="112" y="12" fill="rgba(255,255,255,0.6)" font-family="Arial" font-size="10">Long Run</text>
    <circle cx="190" cy="8" r="5" fill="#FF9800"/>
    <text x="202" y="12" fill="rgba(255,255,255,0.6)" font-family="Arial" font-size="10">Tempo</text>
    <circle cx="265" cy="8" r="5" fill="#2196F3"/>
    <text x="277" y="12" fill="rgba(255,255,255,0.6)" font-family="Arial" font-size="10">Interval</text>
    <circle cx="345" cy="8" r="5" fill="rgba(255,255,255,0.4)"/>
    <text x="357" y="12" fill="rgba(255,255,255,0.6)" font-family="Arial" font-size="10">Recovery</text>
  </g>

  <!-- Back to Home link -->
  <g transform="translate(40, 800)">
    <text x="0" y="0" fill="rgba(255,255,255,0.6)" font-family="Arial" font-size="12">&lt; Back to Dashboard</text>
  </g>

  <!-- Layout labels -->
  <text x="720" y="880" fill="rgba(255,255,255,0.4)" font-family="Arial" font-size="12" text-anchor="middle">1440 x 900 viewport - 40px padding on sides</text>
</svg>
